inDegrees=no
num_controls=7
num_derivatives=13
num_iterations=78
num_multipliers=7
num_parameters=0
num_slacks=7
num_states=26
objective=0.334209
objective_accelerations=0.036539
objective_balance=0.001325
objective_effort=0.026862
objective_height=0.268012
objective_ligament=0.001470
solver_duration=1027.432406
status=Solve_Succeeded
success=true
DataType=double
version=3
OpenSimVersion=4.5
endheader
time	/jointset/ground_pelvis/pelvis_tilt/value	/jointset/ground_pelvis/pelvis_tx/value	/jointset/ground_pelvis/pelvis_ty/value	/jointset/hip_r/hip_flexion_r/value	/jointset/hip_r/hip_adduction_r/value	/jointset/hip_r/hip_rotation_r/value	/jointset/back/lumbar_extension/value	/jointset/patellofemoral_r/patellar_flexion_r/value	/jointset/knee_r/knee_flexion_r/value	/jointset/knee_r/knee_adduction_r/value	/jointset/knee_r/knee_rotation_r/value	/jointset/ankle_r/ankle_angle_r/value	/jointset/subtalar_r/subtalar_angle_r/value	/jointset/ground_pelvis/pelvis_tilt/speed	/jointset/ground_pelvis/pelvis_tx/speed	/jointset/ground_pelvis/pelvis_ty/speed	/jointset/hip_r/hip_flexion_r/speed	/jointset/hip_r/hip_adduction_r/speed	/jointset/hip_r/hip_rotation_r/speed	/jointset/back/lumbar_extension/speed	/jointset/patellofemoral_r/patellar_flexion_r/speed	/jointset/knee_r/knee_flexion_r/speed	/jointset/knee_r/knee_adduction_r/speed	/jointset/knee_r/knee_rotation_r/speed	/jointset/ankle_r/ankle_angle_r/speed	/jointset/subtalar_r/subtalar_angle_r/speed	/forceset/tau_hip_flexion_r	/forceset/tau_hip_adduction_r	/forceset/tau_hip_rotation_r	/forceset/tau_knee_flexion_r	/forceset/tau_ankle_angle_r	/forceset/tau_subtalar_angle_r	/forceset/tau_lumbar_extension	lambda_cid13_p0	lambda_cid14_p0	lambda_cid14_p1	lambda_cid14_p2	lambda_cid14_p3	lambda_cid14_p4	lambda_cid14_p5	/jointset/ground_pelvis/pelvis_tilt/accel	/jointset/ground_pelvis/pelvis_tx/accel	/jointset/ground_pelvis/pelvis_ty/accel	/jointset/hip_r/hip_flexion_r/accel	/jointset/hip_r/hip_adduction_r/accel	/jointset/hip_r/hip_rotation_r/accel	/jointset/back/lumbar_extension/accel	/jointset/patellofemoral_r/patellar_flexion_r/accel	/jointset/knee_r/knee_flexion_r/accel	/jointset/knee_r/knee_adduction_r/accel	/jointset/knee_r/knee_rotation_r/accel	/jointset/ankle_r/ankle_angle_r/accel	/jointset/subtalar_r/subtalar_angle_r/accel	gamma_cid13_p0	gamma_cid14_p0	gamma_cid14_p1	gamma_cid14_p2	gamma_cid14_p3	gamma_cid14_p4	gamma_cid14_p5
1.5	-0.1059907445756695	0.03935950845327397	0.8179963407974461	0.8207058946866955	-0.2262708240065987	-0.1234167356738305	-0.6252856619977544	0.9307691541488908	0.9307691541488908	-0.03560652170370061	0.1744483103517613	0.3059934239519765	0.1379831029866203	0.5119311694210412	0.2220027300130833	0.502692733591002	-2.045169917014774	0.001348947316515498	-0.1768388227019045	0.7993600896530267	-1.939367149164212	-1.93936714916421	0.4843368321582803	0.0003463120690111164	-0.5229839724141019	-0.206118138131547	-0.1707454715005697	0.01926782474027929	0.0175594439330241	-0.2834174873091099	-0.008579800547417672	-0.007038357360108722	0.2183660444665655	-9.639193029802936	-45.0636677966225	-10.21932208897641	1.219897984861607	-1.05882858640816	-628.9148997049709	52.73318508540689	0.1439704219134242	0.5409015542436881	-0.5214130420280518	-0.9848649012678244	-0.243330694934445	-0.6972674101281227	1.773207502336563	-1.331992281921481	-1.331992281921481	0.4048162455247864	-0.01785111755796618	-0.6549208180121043	-0.4154567172113099	1.643487559348709e-07	1.2937887532248e-07	-1.070169270733821e-06	1.369335181106219e-06	2.972617610694719e-08	3.084947465025484e-07	-8.242314988598943e-07
1.51	-0.1008646106650435	0.04160634510030956	0.8229961966585033	0.8002069605621556	-0.2262703768997483	-0.1252196858767291	-0.6172049161644331	0.9113113443422766	0.9113113443422765	-0.03074133595034953	0.1744519859238913	0.3007313691059191	0.1359001733004566	0.5132180302844782	0.2273367732040175	0.4971724648800605	-2.054346991762721	-0.001264915865463879	-0.1837655612025827	0.8166792601564201	-1.951929479638654	-1.951929479638651	0.4886595257343015	0.0003900411655861306	-0.5293436700143694	-0.2104245365845329	-0.1632341290961893	0.01737878204264559	0.01769745060951162	-0.2799672180905996	-0.006490219512711557	-0.00776092868500929	0.2115726990822512	-10.65844086188469	-44.1149043998302	-10.20781291176378	1.036218184831729	-1.178714488432455	-624.0854269730614	52.71111797404841	0.1094165253243988	0.5254863636853246	-0.5831693130107346	-0.8436265097859621	-0.2710955808828348	-0.6922816901010206	1.694799296119701	-1.178583717045744	-1.178583717045614	0.4397576311039335	0.01589532299169611	-0.6139593586754587	-0.431738247723097	1.554225483897339e-07	1.242737256927229e-07	-9.976898452335781e-07	1.327319199480329e-06	2.525611138577432e-08	3.046493394368229e-07	-7.986116127091167e-07
1.52	-0.09572793362443004	0.0439056883116879	0.8279376827269744	0.7796243561404905	-0.2262962047149283	-0.1270922843886471	-0.608954273131722	0.8917358651735496	0.8917358651735496	-0.02583417091774557	0.1744561808669324	0.2954082242583307	0.1337754782620869	0.5140397954185376	0.2325040428816333	0.4910187750737773	-2.061903976439782	-0.003906037089567822	-0.1907684845057877	0.8333395295309728	-1.962901021586703	-1.962901021586701	0.4927326880088487	0.0004501862512195772	-0.5352019727202915	-0.2144712085727534	-0.155722786691809	0.01548973934501193	0.01783545728599899	-0.2765169488720901	-0.004400638478005428	-0.008483500009909805	0.2047793536979436	-11.67964900801151	-43.16678538777301	-10.19491976093811	0.8506077980553719	-1.309427276007515	-619.2616797757606	52.74755918349068	0.05095127603787725	0.507546851580016	-0.6480972610964036	-0.660846887090772	-0.2487823033593586	-0.7125043706334717	1.641427276568439	-1.013834576642952	-1.013834576643308	0.3549099852299796	-0.01456791974627959	-0.5546418391429547	-0.3635114242582314	1.546476484723633e-07	1.167629189582816e-07	-1.067409046398271e-06	1.226498305159089e-06	3.819629731260762e-08	2.975415484934879e-07	-8.447168009474655e-07
1.53	-0.09058544457533067	0.04625577878561789	0.8328145276089642	0.7589744048110511	-0.2263486141784606	-0.1290353249642501	-0.6005405065310394	0.8720586465731678	0.8720586465731671	-0.02088740276913749	0.1744611838067902	0.2900289464179539	0.131611528740183	0.5143737013353636	0.2374765311005113	0.4842506305091861	-2.067802573578328	-0.006589920933183583	-0.1977819789154535	0.849282543478186	-1.972265763046542	-1.972265763046545	0.4966511267122652	0.000522345608142976	-0.5405765874492747	-0.2182954695318935	-0.1481123319126493	0.01337834695148459	0.01800778068729367	-0.273305555907298	-0.002263156830896956	-0.009264251376764948	0.1978812715623653	-12.69992893849407	-42.22657842828153	-10.21388795318752	0.6760267076130766	-1.362796301142809	-614.664663343576	52.79807822577695	0.01197168160136032	0.4864889795883041	-0.7060524150684532	-0.5117968475856005	-0.2802598591206716	-0.686886272904521	1.551051384693687	-0.8562869652342083	-0.8562869652347233	0.4146567320888702	0.01405053038982867	-0.5172680061299717	-0.3885053432904778	1.625335129094946e-07	1.066961015501136e-07	-1.288214288394456e-06	1.063197191099041e-06	6.963487455294726e-08	2.869674746801929e-07	-9.670298807242606e-07
1.54	-0.08544214418064376	0.04865447197624605	0.8376207151731225	0.7382739813661562	-0.2264282761672807	-0.1310467233433049	-0.5919712472047055	0.8522960819512717	0.8522960819512704	-0.01590058104965701	0.1744660968736128	0.2845982430870163	0.129410012226378	0.5142020645360454	0.242224586221267	0.4768873115074759	-2.071998399530838	-0.009356542147118865	-0.2044400451961299	0.8644380746612357	-1.979970225889578	-1.979970225889584	0.5007434021833134	0.0004322116442229908	-0.5454870708324119	-0.2219846069529767	-0.1405018771334896	0.01126695455795727	0.01818010408858826	-0.270094162942506	-0.0001256751837884749	-0.01004500274362003	0.190983189426787	-13.71530902627247	-41.28767313725525	-10.23236551261711	0.5005459347199308	-1.42187578969316	-610.0814236486946	52.90068410891359	-0.05015726719096263	0.462660231955566	-0.767132148520195	-0.3202926498834657	-0.2653297774232639	-0.6414187448355749	1.483930723735705	-0.6817788532825794	-0.6817788532825788	0.3896773387539562	-0.0470265839120107	-0.4618155699732573	-0.336486716646824	1.660739403290701e-07	9.586689652710801e-08	-1.474903680855944e-06	8.885852320877798e-07	9.69195384241008e-08	2.791229097222116e-07	-1.064073491609e-06
1.55	-0.08030296117078579	0.05109952547453402	0.842350341428838	0.7175400865626194	-0.2265357150642361	-0.1331245624062251	-0.5832543373533794	0.8324649397196054	0.8324649397196049	-0.01087377319253937	0.1744699647279773	0.2791211001022643	0.1271729021749647	0.5135593692920958	0.2467483715029517	0.4689427715672476	-2.07449153932685	-0.01212466758421682	-0.2111645840539386	0.8788186267138611	-1.985951977859893	-1.985951977859893	0.5045353279070416	0.0003590877801649477	-0.5498311194380934	-0.2253717828219465	-0.1331089084142348	0.009121389842280125	0.01831370040400383	-0.2668683384498637	0.001988467898314819	-0.01090161175714043	0.1842862947410723	-14.72198359556982	-40.37615139675265	-10.29545234553453	0.34002408143355	-1.524958968491632	-605.7438158547986	52.94770651488632	-0.08259507686229986	0.4416027697504055	-0.8223357645784577	-0.1704629624061865	-0.2816095433356825	-0.6932873745907941	1.396327112509338	-0.5104697399533011	-0.5104697399524254	0.3612969361170647	0.01527783744452618	-0.4040755217413223	-0.3301879512937555	1.646076685762447e-07	8.415928838265913e-08	-1.622285681462243e-06	7.009412125892535e-07	1.194181716742358e-07	2.744232136627436e-07	-1.132002279639851e-06
1.56	-0.0751724589981404	0.05358868984433393	0.8469976781155906	0.6967899326975331	-0.2266706463388589	-0.1352707100413907	-0.5743973800482305	0.8125831606940266	0.8125831606940269	-0.005811576728797571	0.1744736479687206	0.2736038414282804	0.1249038493790074	0.512465897093533	0.2510467605236555	0.460429397714847	-2.075250211840705	-0.01485501768061962	-0.2181017596452294	0.8924475654258223	-1.9900975846721	-1.990097584672095	0.5078211235081626	0.0003952889199959868	-0.5535102086788037	-0.2283731558617841	-0.12571593969498	0.006975825126602956	0.01844729671941995	-0.2636425139572224	0.004102610980418097	-0.01175822077066091	0.1775894000553691	-15.71729073322066	-39.46603582387985	-10.35894289652492	0.1797468064104648	-1.631314624001641	-601.4220888210212	53.03764366408618	-0.140312658113617	0.4175809797593655	-0.8808989309546544	0.02660080654810761	-0.2577747092842348	-0.683946091532	1.333608055602872	-0.3145498216607905	-0.3145498216612732	0.2884513142325333	-0.02516158313419428	-0.3288236969790208	-0.2593261508203876	1.754803437561535e-07	7.424476910350684e-08	-1.903234079846683e-06	4.682879261793444e-07	1.576300998805342e-07	2.544909639848689e-07	-1.240977058913373e-06
1.57	-0.07005535094060296	0.05611958955237615	0.8515571694527356	0.6760409694023994	-0.2268329112479023	-0.1374872050511057	-0.5654083998932755	0.7926688531678415	0.7926688531678423	-0.000718309118947238	0.1744786716753192	0.2680527878924355	0.1226062230365704	0.5108596134187395	0.2550826272050963	0.4513858612351651	-2.074238429808088	-0.01762416140157918	-0.2250803389180631	0.9051724879378092	-1.992468571960855	-1.992468571960855	0.5109271741813693	0.000568966951782377	-0.556624569278291	-0.2311547309324324	-0.1177471022157384	0.004333548753117543	0.01862290136626682	-0.261467475743404	0.007151498388819457	-0.01271865482101279	0.1704462857088381	-16.69916828059826	-38.29424534819195	-10.4411160780809	0.04461769882408985	-1.80457595710488	-597.4981442161164	53.26407286190592	-0.1851941865403548	0.3890561890350002	-0.9284936625148451	0.1840761458504752	-0.2906294388880308	-0.6870829599543511	1.21553770489366	-0.1541142752870658	-0.1541142752874143	0.33552410911404	0.03250917709146525	-0.2912513543955377	-0.288376613586893	2.017767026019801e-07	6.657161090597525e-08	-2.351140475453801e-06	1.793730561302071e-07	2.154836467820367e-07	2.155180222839859e-07	-1.401259327240234e-06
1.58	-0.06495718731268911	0.05868934126257248	0.8560237428938759	0.6553112457764383	-0.2270236966412325	-0.1397699396765081	-0.5562974498420213	0.7727396875502084	0.7727396875502091	0.004408787430685772	0.1744842074983865	0.2624728889280033	0.1202806202577469	0.5086770111688205	0.2588171609544783	0.441845818513888	-2.071402278006192	-0.02055911453798752	-0.2313496827827113	0.9168415446856778	-1.993069202961779	-1.993069202961781	0.5145869114645492	0.0004977122138187354	-0.5592792943962548	-0.2339684431390747	-0.1097782647364967	0.001691272379632643	0.01879850601310964	-0.2592924375295859	0.01020038579722102	-0.01367908887136357	0.163303171362307	-17.66605410894534	-37.12320922979126	-10.52434623070324	-0.08928702360326016	-1.976515807403814	-593.5798399833238	53.51745426023814	-0.2555763731387126	0.3573143933475932	-0.9802001792737047	0.3914747604037385	-0.2909365923739954	-0.5420990098948731	1.122434902779217	0.03952143590530952	0.03952143590530947	0.3991886362272758	-0.0741481370848452	-0.2368966006741508	-0.2657535780191951	2.073707901739129e-07	2.204403347328659e-08	-2.911491582941432e-06	-6.622104940647982e-07	3.132688652167441e-07	8.634752152256245e-08	-1.43399531313444e-06
